# xmcd CD database file
#
# Track frame offsets:
#	150
#	21550
#	40915
#	59972
#	80592
#	100920
#	119737
#	138190
#	159560
#	179622
#	199922
#	222092
#	239317
#	262707
#	284275
#	303642
#
# Disc length: 4271 seconds
#
# Revision: 1
# Processed by: cddbd v1.5PL3 Copyright (c) Steve Scherf et al.
# Submitted via: CDex 1.51
#
DISCID=f410ad10
DTITLE=島谷ひとみ - Delicious! The Best of Hitomi Shimatani
DYEAR=2003
DGENRE=JPop
TTITLE0=解放区
TTITLE1=パピヨン~papollon~
TTITLE2=市場に行こう
TTITLE3=Fantasista
TTITLE4=やさしいキスの見つけ方
TTITLE5=シャンティ
TTITLE6=亜麻色の髪の乙女
TTITLE7=A.S.A.P.~as soon as possible~
TTITLE8=いつの日にか・・・
TTITLE9=Poinsettia
TTITLE10=赤い砂漠の伝説
TTITLE11=元気を出して
TTITLE12=Perseus~ペルセウス~
TTITLE13=La Fiesta
TTITLE14=YUME日和
TTITLE15=花鳥諷詠-Song for Everybody-
EXTD=YEAR: 2003
EXTT0=
EXTT1=
EXTT2=
EXTT3=
EXTT4=
EXTT5=
EXTT6=
EXTT7=
EXTT8=
EXTT9=
EXTT10=
EXTT11=
EXTT12=
EXTT13=
EXTT14=
EXTT15=
PLAYORDER=
